<svg id="Ebene_1" data-name="Ebene 1" xmlns="http://www.w3.org/2000/svg" xmlns:xlink="http://www.w3.org/1999/xlink" viewBox="0 0 477.17 307"><defs><style>.cls-1{fill:url(#Unbenannter_Verlauf_11);}.cls-2{fill:#fff468;}.cls-3{fill:#10555c;}.cls-4{fill:none;}</style><radialGradient id="Unbenannter_Verlauf_11" cx="262.01" cy="159" r="148" gradientUnits="userSpaceOnUse"><stop offset="0.25"/><stop offset="0.94" stop-color="#d1d1d1" stop-opacity="0.18"/><stop offset="1" stop-color="#fff" stop-opacity="0"/></radialGradient></defs><circle class="cls-1" cx="262.01" cy="159" r="148"/><circle class="cls-2" cx="251.51" cy="142.5" r="142.5"/><path class="cls-3" d="M14,303a8.26,8.26,0,0,1,2.16-.74,12.7,12.7,0,0,1,1.85-.14,3.09,3.09,0,0,1,2.4.85,5.84,5.84,0,0,1,1.17,2.76l7.48,38.46q.39,2.06,1,5.58t1.3,7.13c.44,2.41.8,4.4,1.1,6a1.77,1.77,0,0,0,.29.81.78.78,0,0,0,.49.12l12.36-59.62c.69-.1,1.49-.17,2.4-.22s1.66-.07,2.25-.07,1.4,0,2.34.07a15.74,15.74,0,0,1,2.15.22L66,362.85a1.9,1.9,0,0,0,.3.79.69.69,0,0,0,.48.14c.36-2.12.79-4.43,1.27-6.94s1-4.9,1.42-7.18.83-4.11,1.13-5.48l8.84-41.49a14.6,14.6,0,0,1,1.54-.22c.57-.05,1.12-.07,1.64-.07s1.08,0,1.68.07a7.92,7.92,0,0,1,1.69.32l.39.49L71.71,369.35a20.21,20.21,0,0,1-3.35.39c-1.32.07-2.42.1-3.3.1a5.27,5.27,0,0,1-2.71-.68c-.76-.46-1.29-1.48-1.59-3.08l-5.62-29.57q-.78-4.15-2.07-10.92t-2.62-14.15h-.58q-1.42,7.38-2.74,14.08t-2.3,11l-7.08,32.94a22,22,0,0,1-3.11.32c-1.22.05-2.22.07-3,.07a6.57,6.57,0,0,1-3-.71A4.3,4.3,0,0,1,26.7,366Z" transform="translate(-13.99 -65)"/><path class="cls-3" d="M90.67,356.45A15.7,15.7,0,0,1,93,347.63a13.45,13.45,0,0,1,6.37-5.11,25.59,25.59,0,0,1,9.58-1.66c2.09,0,4.3.11,6.65.32a40.07,40.07,0,0,1,6.69,1.15v4.79a46.59,46.59,0,0,0-6.45-.91q-3.51-.27-6.89-.27a12.54,12.54,0,0,0-8.33,2.62,9.13,9.13,0,0,0-3.1,7.4,9.94,9.94,0,0,0,2,6.31,7.13,7.13,0,0,0,5.94,2.59A16.77,16.77,0,0,0,114,362.1a22.35,22.35,0,0,0,7.75-8.34l1.17,6.41a60.06,60.06,0,0,1-4.33,4.37,27.31,27.31,0,0,1-6.18,4.27,16.57,16.57,0,0,1-7.72,1.81,13.71,13.71,0,0,1-7.82-2.1,13.13,13.13,0,0,1-4.67-5.35A15.64,15.64,0,0,1,90.67,356.45Zm38.42,10.22a7.1,7.1,0,0,1-1.25,2,5.49,5.49,0,0,1-2,1.5,8.9,8.9,0,0,1-3.54-2.5,9.16,9.16,0,0,1-1.84-3.64,18.8,18.8,0,0,1-.53-4.62V336.61c0-3.75-.83-6.39-2.47-7.94a9.2,9.2,0,0,0-6.57-2.32,28.86,28.86,0,0,0-8.12,1.19,63.06,63.06,0,0,0-8,3,6.6,6.6,0,0,1-1.66-2.37,7.09,7.09,0,0,1-.74-3c1.57-.68,3.38-1.38,5.45-2.1a52.65,52.65,0,0,1,6.55-1.78,34.44,34.44,0,0,1,6.92-.71,17,17,0,0,1,8.45,1.88,11.57,11.57,0,0,1,4.94,5.52,21.83,21.83,0,0,1,1.61,8.83v20.13a31.37,31.37,0,0,0,.44,5.57A7.47,7.47,0,0,0,129.09,366.67Z" transform="translate(-13.99 -65)"/><path class="cls-3" d="M162.86,321.46a13.83,13.83,0,0,1,.29,2.59,11.82,11.82,0,0,1-.29,2.59l-14.47-.2-11.29.2a11.82,11.82,0,0,1-.29-2.59,13.83,13.83,0,0,1,.29-2.59l11.14.2Zm-18.92-10.41a7.89,7.89,0,0,1,.61-3.45c.41-.79,1.38-1.19,2.91-1.19h2.4l.58.58v53.27a4.76,4.76,0,0,0,.83,2.89,3.49,3.49,0,0,0,3,1.12h7.58a10.49,10.49,0,0,1,.54,3.67v.68a4.26,4.26,0,0,1-.05.64c-1.53.19-3.06.34-4.6.43s-3.25.15-5.18.15a9.37,9.37,0,0,1-6.25-2,7.07,7.07,0,0,1-2.35-5.74Z" transform="translate(-13.99 -65)"/><path class="cls-3" d="M200.24,338.22a15.16,15.16,0,0,0-.71-5.67,9.4,9.4,0,0,0-9.84-6.79q-5.48,0-8.9,5.16t-3.42,15q0,9.5,3.4,14.18a10.92,10.92,0,0,0,9.35,4.69,13.89,13.89,0,0,0,6.82-1.71,45.8,45.8,0,0,0,5.84-3.81,9.06,9.06,0,0,1,2,1.9,6.41,6.41,0,0,1,1.27,2.45,29.71,29.71,0,0,1-7.5,5.08,21.46,21.46,0,0,1-9.27,1.95,17.41,17.41,0,0,1-8.87-2.12,16.69,16.69,0,0,1-5.84-5.7,26.21,26.21,0,0,1-3.2-8,40.59,40.59,0,0,1-1-8.95A36.22,36.22,0,0,1,172,334.48a22.56,22.56,0,0,1,4.38-7.91,18.15,18.15,0,0,1,6.25-4.65,17.93,17.93,0,0,1,7.26-1.54,19.39,19.39,0,0,1,7.92,1.45,15,15,0,0,1,5.18,3.64,14.21,14.21,0,0,1,2.81,4.54,12.36,12.36,0,0,1,.85,4.16,7.1,7.1,0,0,1-.61,3c-.41.88-1.37,1.32-2.91,1.32a12.89,12.89,0,0,1-1.41-.08C201.25,338.39,200.76,338.32,200.24,338.22Z" transform="translate(-13.99 -65)"/><path class="cls-3" d="M226.34,369.45a14.54,14.54,0,0,1-3.23.29,14.69,14.69,0,0,1-3.27-.29V298.2l.58-.59h2.4q2.3,0,2.91,1.2a7.87,7.87,0,0,1,.61,3.44Zm29.56-9c0,1.56.07,3,.2,4.47a12.37,12.37,0,0,0,.88,3.74,5.57,5.57,0,0,1-1.91,1,7.36,7.36,0,0,1-2.34.39,3,3,0,0,1-2.64-1.1,5.74,5.74,0,0,1-.78-3.3V338.12c0-4-.51-6.85-1.52-8.62s-3-2.66-5.86-2.66a17.16,17.16,0,0,0-6.55,1.41,25.5,25.5,0,0,0-6.33,3.79,18.83,18.83,0,0,0-4.52,5.16V330a25.26,25.26,0,0,1,18.91-9.18,11.93,11.93,0,0,1,7.38,2.07,11.33,11.33,0,0,1,3.91,5.52,23.41,23.41,0,0,1,1.17,7.56Z" transform="translate(-13.99 -65)"/><path class="cls-3" d="M310.93,323.41a20,20,0,0,0-1.42-7.18A14.09,14.09,0,0,0,304.7,310q-3.39-2.56-9.26-2.56A15.21,15.21,0,0,0,282,314.76q-4.79,7.38-4.79,21.65,0,13.24,4.84,20.7t13.2,7.45a23.41,23.41,0,0,0,8.74-1.8,33.17,33.17,0,0,0,9.29-6,10.1,10.1,0,0,1,2.34,2,7.92,7.92,0,0,1,1.52,2.47A30.93,30.93,0,0,1,311,366a33.22,33.22,0,0,1-7.75,3.37,31.49,31.49,0,0,1-9,1.24A21.24,21.24,0,0,1,283,367.81a21.92,21.92,0,0,1-7.55-7.64,36.32,36.32,0,0,1-4.26-11,59.81,59.81,0,0,1-1.34-12.78q0-12.06,3.54-19.79t9.36-11.41a23.19,23.19,0,0,1,12.66-3.69,24.88,24.88,0,0,1,12.07,2.74,20.67,20.67,0,0,1,7.75,6.94,15.66,15.66,0,0,1,2.71,8.55,6.11,6.11,0,0,1-.69,2.78c-.45.92-1.49,1.37-3.12,1.37a11.51,11.51,0,0,1-1.54-.09A14.4,14.4,0,0,1,310.93,323.41Z" transform="translate(-13.99 -65)"/><path class="cls-3" d="M345.82,364.27a10.49,10.49,0,0,1,.54,3.67v.68a1.91,1.91,0,0,1-.1.64c-.91.16-2,.3-3.39.41s-2.5.17-3.45.17a8.35,8.35,0,0,1-5.72-2,7.26,7.26,0,0,1-2.24-5.74V298.2l.58-.59h2.4q2.3,0,2.91,1.2a7.87,7.87,0,0,1,.61,3.44v57.92a4.44,4.44,0,0,0,.92,3.07,3.43,3.43,0,0,0,2.69,1Z" transform="translate(-13.99 -65)"/><path class="cls-3" d="M394.74,345.5a34.51,34.51,0,0,1-2.27,12.93,19.64,19.64,0,0,1-6.77,8.94,18.5,18.5,0,0,1-11.14,3.25,18.31,18.31,0,0,1-11.17-3.3,19.73,19.73,0,0,1-6.69-9,35,35,0,0,1-2.23-12.87,34.09,34.09,0,0,1,2.28-12.81,20.14,20.14,0,0,1,6.74-9,18.13,18.13,0,0,1,11.07-3.3,18.41,18.41,0,0,1,11.19,3.3,19.94,19.94,0,0,1,6.75,9A34.8,34.8,0,0,1,394.74,345.5Zm-33.38,0a36.26,36.26,0,0,0,1.23,9.46,16.21,16.21,0,0,0,4.13,7.48,10.7,10.7,0,0,0,7.94,2.91,10.56,10.56,0,0,0,7.86-2.91,16.28,16.28,0,0,0,4.11-7.48,37.05,37.05,0,0,0,0-18.86,16.73,16.73,0,0,0-4.11-7.55,10.41,10.41,0,0,0-7.86-3,10.55,10.55,0,0,0-7.94,3,16.67,16.67,0,0,0-4.13,7.55A36,36,0,0,0,361.36,345.5Z" transform="translate(-13.99 -65)"/><path class="cls-3" d="M435.06,338.22a15.36,15.36,0,0,0-.71-5.67,9.4,9.4,0,0,0-9.84-6.79q-5.49,0-8.9,5.16t-3.42,15q0,9.5,3.4,14.18a10.92,10.92,0,0,0,9.35,4.69,13.89,13.89,0,0,0,6.82-1.71,45.8,45.8,0,0,0,5.84-3.81,8.81,8.81,0,0,1,2,1.9,6.3,6.3,0,0,1,1.28,2.45,29.58,29.58,0,0,1-7.51,5.08,21.41,21.41,0,0,1-9.26,1.95,17.41,17.41,0,0,1-8.87-2.12,16.69,16.69,0,0,1-5.84-5.7,26.21,26.21,0,0,1-3.2-8,40,40,0,0,1-1-8.95,36.22,36.22,0,0,1,1.61-11.41,22.56,22.56,0,0,1,4.38-7.91,18.15,18.15,0,0,1,6.25-4.65,17.93,17.93,0,0,1,7.26-1.54,19.39,19.39,0,0,1,7.92,1.45,15,15,0,0,1,5.18,3.64,14.21,14.21,0,0,1,2.81,4.54,12.36,12.36,0,0,1,.85,4.16,7.1,7.1,0,0,1-.61,3q-.62,1.32-2.91,1.32a12.89,12.89,0,0,1-1.41-.08C436.07,338.39,435.58,338.32,435.06,338.22Z" transform="translate(-13.99 -65)"/><path class="cls-3" d="M461.16,369.45a10.94,10.94,0,0,1-1.47.22c-.55.05-1.14.07-1.76.07a14.69,14.69,0,0,1-3.27-.29V298.2l.58-.59h2.4q2.3,0,2.91,1.2a7.87,7.87,0,0,1,.61,3.44Zm25.31-8.65a40.9,40.9,0,0,0,2.3,4.42,9.38,9.38,0,0,0,2.39,2.81,4.38,4.38,0,0,1-1.81,1.4,6,6,0,0,1-2.59.61,4,4,0,0,1-3.34-1.35,17.67,17.67,0,0,1-2.08-3.59l-4.64-10.31a15.82,15.82,0,0,0-3.86-5.82c-1.31-1-3.39-1.56-6.26-1.56-.62,0-1.41,0-2.37.07s-2,.13-3.2.22l-3.18.3v-5.18h11.54c3.52,0,6.21.71,8.09,2.15a18.64,18.64,0,0,1,5.1,7.13Zm-11.53-20.18a10.3,10.3,0,0,1-3.91,3.69,11.25,11.25,0,0,1-4.84,1h-7.92v-3l7.33-.44a2.17,2.17,0,0,0,1.2-.34,4.62,4.62,0,0,0,1-.88l10.84-15.94a12.78,12.78,0,0,1,2.11-2.51,4.78,4.78,0,0,1,3.22-.91c.62,0,1.16,0,1.61,0l1.62.07.58.78Z" transform="translate(-13.99 -65)"/><line class="cls-4" x1="280.84" y1="171.19" x2="286.19" y2="170.53"/><line class="cls-4" x1="228.68" y1="165.18" x2="220.84" y2="164.39"/><line class="cls-4" x1="228.01" y1="171.19" x2="220.66" y2="170.53"/><line class="cls-4" x1="336.6" y1="220.62" x2="354.6" y2="220.62"/><line class="cls-4" x1="326.01" y1="220.62" x2="328.01" y2="220.62"/><line class="cls-4" x1="316.82" y1="220.62" x2="206.63" y2="220.62"/><path class="cls-3" d="M278,215.36a2,2,0,0,0,2.7-.77l2.28-4.16a2,2,0,0,0-3.49-1.92l-2.28,4.16A2,2,0,0,0,278,215.36Z" transform="translate(-13.99 -65)"/><path class="cls-3" d="M248.59,220.84l-4.19-2.3a2,2,0,1,0-1.9,3.46l4.19,2.31a2,2,0,1,0,1.9-3.47Z" transform="translate(-13.99 -65)"/><path class="cls-3" d="M286.48,246.19l4.18,2.3a2,2,0,1,0,1.91-3.46l-4.19-2.31a2,2,0,1,0-1.9,3.47Z" transform="translate(-13.99 -65)"/><path class="cls-3" d="M279.61,141.09a1.69,1.69,0,0,0,1.18.49,1.68,1.68,0,0,0,1.18-2.86,7.13,7.13,0,0,0-10.38,0,1.67,1.67,0,0,0,2.35,2.37A3.82,3.82,0,0,1,279.61,141.09Z" transform="translate(-13.99 -65)"/><path class="cls-3" d="M246.84,141.07a1.66,1.66,0,0,0,2.36,0,3.82,3.82,0,0,1,5.67,0,1.69,1.69,0,0,0,1.18.49,1.68,1.68,0,0,0,1.18-2.86,7.13,7.13,0,0,0-10.38,0A1.67,1.67,0,0,0,246.84,141.07Z" transform="translate(-13.99 -65)"/><path class="cls-3" d="M368.6,283.12h-18a2.5,2.5,0,0,0,0,5h18a2.5,2.5,0,0,0,0-5Z" transform="translate(-13.99 -65)"/><path class="cls-3" d="M342,283.12h-2a2.5,2.5,0,0,0,0,5h2a2.5,2.5,0,0,0,0-5Z" transform="translate(-13.99 -65)"/><path class="cls-3" d="M330.82,283.12H300.76a7.48,7.48,0,0,0,.72-.76c1.73-2.11,2.3-5.13,1.69-9a19.77,19.77,0,0,0-1.66-5.34,47.73,47.73,0,0,0,13.31-23l.49-.09c6.17-1.16,6.91-5.61,7.16-10.46.23-4.23-.56-12.18-3.64-16.74a8.44,8.44,0,0,0-6.6-3.44,48.72,48.72,0,0,0-3.37-6.44,77.52,77.52,0,0,0-4.64-16.45A7.51,7.51,0,0,0,310.81,178l-8.62-4.74A21.33,21.33,0,0,0,300.65,160c-.21-.47-.45-.93-.7-1.39a129.1,129.1,0,0,0,.69-18.45l3,3c2.19,2.2,4.46,3.3,6.77,3.3a7,7,0,0,0,.79,0c4-.43,6.3-4.06,6.4-4.21s9.91-16-6.28-31.53c-14.42-13.8-31.7-3.28-35.52-.66-6.84-2.41-12.95-3.11-22.59,0l-.1-.1c-.19-.15-20-15.42-36.29.11s-6.37,31.37-6.27,31.53,2.45,3.78,6.4,4.21a7,7,0,0,0,.79,0c2.3,0,4.58-1.1,6.77-3.29l5.79-5.8a53.32,53.32,0,0,0-.09,20.2c-.2.3-.4.61-.58.94s-.28.47-.41.72a22.21,22.21,0,0,0-2.78,9c-.87,11,7.73,18.39,7.82,18.46l.1.09c-2,2.21-9.26,11.26-10.58,26.45-.41.87-.79,1.74-1.14,2.62a8,8,0,0,0-5.57,3.31c-2.76,4.08-3.68,10.88-3.68,15.29,0,.52,0,1,0,1.45.26,4.85,1,9.3,7.16,10.46l.45.08a49,49,0,0,0,11.54,20.48,14.8,14.8,0,0,0-2.88,7.32c-.31,3.9.56,7,2.58,9.16l.45.45H220.62a2.5,2.5,0,0,0,0,5h110.2a2.5,2.5,0,1,0,0-5Zm-72.65-31.76a2,2,0,0,0-2.69.77l-2.29,4.16a1.94,1.94,0,0,0-.17,1.45c-.49,0-1-.05-1.52-.05a30.11,30.11,0,0,0-5.57.5,33.43,33.43,0,0,1-9.35-13.39,11.36,11.36,0,0,0,5.48-3.65,15.1,15.1,0,0,0-.24-18.05,18,18,0,0,0-4.37-4.06c.31-.66.64-1.32,1-2a32.78,32.78,0,0,1,15.36-14.16c1.59,3.62,4.7,6.87,10.27,6.87,7,0,10.38-4.69,11.69-8.8a33.68,33.68,0,0,1,22,17.87,17.08,17.08,0,0,0-3.7,3.58,15.91,15.91,0,0,0-1.66,2.79,2,2,0,0,0-2-.58l-15.74,4.63a7.92,7.92,0,0,0-6.93-4v0l-3-9.34a2,2,0,0,0-2.49-1.31,2,2,0,0,0-1.3,2.48l2.91,9.19a7.77,7.77,0,0,0-3.08,3.07,8,8,0,0,0,14,7.68,7.8,7.8,0,0,0,1-3.92l15.61-4.6h0a14.7,14.7,0,0,0,2.51,12,11.48,11.48,0,0,0,5.53,3.67,33,33,0,0,1-9.74,14.31,26.81,26.81,0,0,0-6.62-.77c-8.49,0-13.37,3.93-16,8.59a14.44,14.44,0,0,0-10.33-8s0,0,0,0l2.29-4.16A2,2,0,0,0,258.17,251.36ZM227,215.06c.5-1.15,1.06-2.28,1.68-3.4a43.83,43.83,0,0,1,23.74-20.19v4.6a16.93,16.93,0,0,0,.29,3A36.72,36.72,0,0,0,235,215.15q-.52,1-1,1.95A23.38,23.38,0,0,0,227,215.06Zm41.1-69.52a7.45,7.45,0,0,1,.93.36c.17.07.34.14.51.23s.46.23.7.37l.4.23a4.53,4.53,0,0,1,.4.26,14.23,14.23,0,0,1,1.42,1l.38.31c.25.22.51.44.75.69l.18.17a5.18,5.18,0,0,1,.41.4l-.19.38c-.18.34-.38.73-.64,1.16l-.18.3c-.1.17-.22.35-.34.54l-.29.44-.34.48-.3.41-.33.41c-.12.16-.26.31-.38.46l-.33.37a15,15,0,0,1-1.2,1.19c-.11.09-.22.19-.33.27a9.52,9.52,0,0,1-.88.69L268,157a.21.21,0,0,1-.08.06l-.55.33-.27.14-.26.13-.26.13a1.39,1.39,0,0,1-.28.12l-.56.22-.29.1-.28.09-.16,0a3.76,3.76,0,0,1-.86.14,4.19,4.19,0,0,1-1.41-.15h0l-.23-.07s0,0,0,0a1.82,1.82,0,0,1-.3-.11,2.75,2.75,0,0,1-.36-.15,2.64,2.64,0,0,1-.37-.2,1.75,1.75,0,0,1-.28-.17,2.49,2.49,0,0,1-.3-.19,9.18,9.18,0,0,1-1.06-.85l-.36-.33-.37-.38a4.48,4.48,0,0,1-.36-.4c-.12-.13-.24-.27-.35-.41l-.34-.42c-.44-.56-1.31-1.84-1.35-1.9a34,34,0,0,1-1.84-3.29l.26-.24.11-.1.33-.29.38-.32.35-.28.67-.5.5-.34a2.92,2.92,0,0,1,.37-.24c.33-.21.68-.41,1-.61.2-.11.41-.21.62-.31s.49-.23.75-.33l.33-.13a5.65,5.65,0,0,1,.62-.22l.06,0,.66-.2c.24-.07.49-.12.74-.17l.77-.12c.39,0,.78-.07,1.18-.08h.26s0,0,0,0h.31l.32,0,.6.06c.22,0,.43.07.64.12s.46.1.69.16S267.82,145.46,268.05,145.54Zm-.17-3.54a.49.49,0,0,0,0-.12c.46-4.26,2.16-11.52,8.44-12.35a7.19,7.19,0,0,1,6,1.66c3.35,2.92,4.11,8.48,4.11,9.38,0,4.6-.67,6.51-1.16,7.29a23.9,23.9,0,0,0-7.88.14l-.19,0A18.78,18.78,0,0,0,267.88,142Zm-1.46,44.88,3.56,2,3,1.71.09,5.8v.94a12.12,12.12,0,0,1-.66,2.95c-.93,2.66-3.14,6.13-8.36,6.13a7.43,7.43,0,0,1-7.15-4.75,15.16,15.16,0,0,1-1.07-3.82,13.17,13.17,0,0,1-.14-1.8v-5.7l7.35-4.1v11.14a1.68,1.68,0,0,0,3.35,0v-8.56m32.62-.23-3,5.51a48.23,48.23,0,0,0-5.06-3.21q-1-.54-1.95-1a20,20,0,0,0,5.69-3.68Zm-10,5.76A44.6,44.6,0,0,1,308,214.53a24.71,24.71,0,0,0-6.85,2.26,37.48,37.48,0,0,0-24.69-19.71l-.09-6.15a25.62,25.62,0,0,0,4.89.49c.38,0,.76,0,1.12,0A44.61,44.61,0,0,1,289,194.38Zm-17.83,40.71a4,4,0,1,1-1.58-5.38A4,4,0,0,1,271.21,235.09Zm28.66,38.81c.45,2.86.12,5-1,6.34-1.25,1.52-3.55,2.27-7.47,2.43-2.78.11-6.88.07-10.85,0l-5.24,0A9.35,9.35,0,0,1,270,281.4a4.59,4.59,0,0,1-1.36-1.39,5.9,5.9,0,0,1-.82-2.52q-.06-.6-.06-1.17a19.12,19.12,0,0,1,.81-5.36c.06-.2.12-.4.19-.61a14.66,14.66,0,0,1,2.13-4.08c2.18-2.88,5.86-5.23,12.08-5.23a26.42,26.42,0,0,1,2.91.15,18.82,18.82,0,0,1,5.13,1.24,13.92,13.92,0,0,1,5.23,3.59c.24.27.47.54.68.82a14.32,14.32,0,0,1,2,3.52A16.81,16.81,0,0,1,299.87,273.9Zm6.95-19.24a44,44,0,0,1-7.46,9.92,16.75,16.75,0,0,0-5.57-4.56,36.51,36.51,0,0,0,6.74-8.81,35.83,35.83,0,0,0,2.66-6.09,33.31,33.31,0,0,0,5.51.44c.63,0,1.25,0,1.88,0A44.37,44.37,0,0,1,306.82,254.66ZM313.63,218a4.35,4.35,0,0,1,2.42,1.66c2.23,3.3,3.12,9.42,3.12,13.46,0,.44,0,.85,0,1.23-.25,4.8-1,6.44-3.58,7.16-.27.08-.55.14-.86.2-1.05.19-2.16.34-3.29.43a33.33,33.33,0,0,1-7.29-.21,20.9,20.9,0,0,1-3.87-.93,8.11,8.11,0,0,1-3.77-2.48c-.18-.24-.34-.5-.5-.75l4.42-.56a1.74,1.74,0,0,0,.52-.15,1.67,1.67,0,0,0,.2-2.89,1.59,1.59,0,0,0-1.13-.27l-5.35.67h0a11,11,0,0,1-.34-2.85l5.19-.86a1.71,1.71,0,0,0,1.39-1.52,1.91,1.91,0,0,0,0-.41,1.38,1.38,0,0,0-.08-.29v0a1.68,1.68,0,0,0-1.84-1.07l-4.1.68a12.22,12.22,0,0,1,4.28-6.17,20,20,0,0,1,3.4-2.17,20.89,20.89,0,0,1,6.84-2.14,13.29,13.29,0,0,1,1.64-.11h.25A9.15,9.15,0,0,1,313.63,218Zm-14.44-21.35,2-3.68a66.5,66.5,0,0,1,2.81,8.44A46.22,46.22,0,0,0,299.19,196.62Zm9.72-15.2a3.56,3.56,0,1,1-3.43,6.23l-4.34-2.39-3.67-2,.57-.7.1-.13c.18-.22.36-.47.55-.73a22.2,22.2,0,0,0,2.38-4.58Zm-10.83-5.95a17.46,17.46,0,0,1-2.54,4.85l-.11.13-.94,1.15a21.31,21.31,0,0,1-2.94,2.9,15.71,15.71,0,0,1-6.52,3.15c-3.21.71-7.24.59-12.31-1.16A18.68,18.68,0,0,1,270,185a9.93,9.93,0,0,1-3.62-3.89h0l-.28-19.55c5.23-1.54,8.53-6,10.2-8.91.1-.16.18-.32.26-.47s.23-.42.32-.61c.35-.08.72-.16,1.12-.22a20.43,20.43,0,0,1,7.56,0l.61.13a15.9,15.9,0,0,1,8.68,5.58,20.33,20.33,0,0,1,2.42,3.71c.12.21.22.44.32.65a17.89,17.89,0,0,1,1.45,10.12A19.8,19.8,0,0,1,298.08,175.47ZM309,113c14.15,13.54,6.11,26.76,5.76,27.31,0,0-1.61,2.44-4,2.69-1.51.16-3.13-.62-4.82-2.3L290.7,125.46l-.63-.71c-3-3.37-6.5-7.21-8.31-9.19l-3.19-3.49C283.12,109.08,297.05,101.63,309,113Zm-55.25.23c9.2-3,14.85-2.34,21.3,0,3.22,4,5.6,6.48,7.89,8.92,1,1.1,2.11,2.24,3.24,3.49l2.1,2.1c4.13,4.66,7.79,8.82,8.95,10.14a134,134,0,0,1-.22,16.44,19,19,0,0,0-8.33-5.66c.79-1.82,1.16-4.47,1.16-8.1,0-1.45-.94-8.13-5.24-11.9a10.51,10.51,0,0,0-8.69-2.46c-8.86,1.18-10.87,11.1-11.33,15.31v.09h-.1c-7.21.09-12.37,5.75-12.91,6.37l-.06,0c-3.7-.67-12-1.24-18.49,5.31a48.08,48.08,0,0,1,1.25-18.84,12.54,12.54,0,0,1,2.92-4.72l3.28-3.27c1.16-1.11,2.36-2.25,3.46-3.47C247.62,118.9,252.68,114.11,253.73,113.26Zm-31.63,26.8c-1.68,1.68-3.3,2.45-4.81,2.3-2.36-.25-3.95-2.67-4-2.68s-8.46-13.72,5.76-27.32a20.56,20.56,0,0,1,14.61-6.1c7.09,0,13.24,3.45,15.91,5.22-2.74,3.3-4.85,5.54-6.9,7.72-1,1.1-2.11,2.24-3.25,3.51L238.12,124a0,0,0,0,1,0,0c-1.13,1.09-2.28,2.18-3.33,3.33Zm7.72,26.75a19.6,19.6,0,0,1,2.3-6.72c.1-.2.21-.39.33-.6s.36-.59.55-.88a16.05,16.05,0,0,1,14.07-7.71,21.27,21.27,0,0,1,3.82.35c.43.08.83.17,1.16.25l.38.74c1.75,3.25,5.3,8.63,10.09,9.49l.54,19.12a20.72,20.72,0,0,1-3.3,3.16,23.35,23.35,0,0,1-5.07,2.58c-.7.18-1.41.39-2.1.62a18.71,18.71,0,0,1-13.09-1.74,16.92,16.92,0,0,1-3.1-2C236,183.1,228.46,176.54,229.82,166.81Zm7.31,21.12c.35.2.73.4,1.14.61a23.61,23.61,0,0,0,6.21,2.09,47.43,47.43,0,0,0-15.92,13.77A40.55,40.55,0,0,1,237.13,187.93Zm-17,54.17c-2.46-.74-3.17-2.41-3.42-7.11-.21-3.9.61-11.05,3.08-14.69a3.89,3.89,0,0,1,1.43-1.25,7.58,7.58,0,0,1,3.41-.77,9,9,0,0,1,1,0,19.93,19.93,0,0,1,7,1.88,21.82,21.82,0,0,1,3.5,2,13.68,13.68,0,0,1,3,2.85,13,13,0,0,1,1.74,3.23l-5.87-.58h-.21a1.68,1.68,0,0,0-1.61,1.51,1.66,1.66,0,0,0,1.26,1.78,1,1,0,0,0,.24,0l6.9.7a11.69,11.69,0,0,1-.16,2.71l-6.6-.6a2,2,0,0,0-.42,0,1.67,1.67,0,0,0,.11,3.32h.16l5.62.52a11.49,11.49,0,0,1-.9,1.44,8,8,0,0,1-3.83,2.5,20.89,20.89,0,0,1-3.85.92,32.21,32.21,0,0,1-7.36.18c-1.09-.09-2.16-.23-3.18-.41A8,8,0,0,1,220.14,242.1Zm5.13,4.08c.62,0,1.25,0,1.88,0a33.74,33.74,0,0,0,5.56-.45,37.38,37.38,0,0,0,8.76,13.65,20.48,20.48,0,0,0-6.27,3.8A44.58,44.58,0,0,1,225.27,246.18Zm12.29,19.4a17.8,17.8,0,0,1,6.77-3.58,23.83,23.83,0,0,1,5.48-.91c.54,0,1.11,0,1.69,0,5.86,0,9.36,2.14,11.43,5a14.17,14.17,0,0,1,2,4.21c.07.24.13.47.19.71h0a21,21,0,0,0-.72,5.36c0,.35,0,.7,0,1a10.53,10.53,0,0,0,.56,2.81,3.92,3.92,0,0,1-.87,1.13c-1.07,1-2.69,1.38-5,1.38h-18c-1.61,0-4.58-.3-6.41-2.28a7.75,7.75,0,0,1-1.76-5.45c0-.37,0-.76,0-1.17a11.14,11.14,0,0,1,2-5.23A15.25,15.25,0,0,1,237.56,265.58Z" transform="translate(-13.99 -65)"/></svg>